<svg xml:space="preserve" viewBox="143.36 313.344 989.1840000000001 395.264" version="1.1" xmlns:xlink="http://www.w3.org/1999/xlink" xmlns="http://www.w3.org/2000/svg" style="max-height: 500px" width="989.1840000000001" height="395.264">
<desc>Created with Fabric.js 5.3.0</desc>
<defs>
</defs>
<g id="background-logo" transform="matrix(1 0 0 1 640 512)">
<rect height="1024" width="1280" ry="0" rx="0" y="-512" x="-640" paint-order="stroke" style="stroke: none; stroke-width: 0; stroke-dasharray: none; stroke-linecap: butt; stroke-dashoffset: 0; stroke-linejoin: miter; stroke-miterlimit: 4; fill: rgb(255,255,255); fill-opacity: 0; fill-rule: nonzero; opacity: 1;"/>
</g>
<g id="logo-logo" transform="matrix(2.5357476879408685 0 0 2.5357476879408685 457.9285346341842 512.4438143521664)">
<g paint-order="stroke" style="">
		<g transform="matrix(0.5039133244651967 0 0 -0.5039133244651967 -105.4101237800088 -10.688576857950494)">
<path stroke-linecap="round" d="M 0 0 L 0 0.029" transform="translate(0, -0.0145)" paint-order="stroke" style="stroke: rgb(252,0,0); stroke-width: 1; stroke-dasharray: none; stroke-linecap: butt; stroke-dashoffset: 0; stroke-linejoin: miter; stroke-miterlimit: 10; fill: none; fill-rule: nonzero; opacity: 1;"/>
</g>
		<g transform="matrix(0.5039133244651967 0 0 -0.5039133244651967 55.8897223081608 -25.218436013509034)">
<path stroke-linecap="round" d="M 0 0 C -37.264 -35.458 -17.436 -63.325 3.387 -79.48 C -4.122999999999999 -81.592 -11.902 -82.65100000000001 -20.092 -82.583 C -37.176 -82.385 -53.041 -77.169 -66.27 -68.315 C -66.332 -67.53 -66.41 -66.828 -66.414 -66.064 C -66.746 -66.54199999999999 -67.131 -67.02399999999999 -67.488 -67.535 C -73.486 -75.64699999999999 -82.127 -83.508 -94.484 -88.038 C -86.869 -78.952 -85.387 -63.098 -85.588 -50.687999999999995 C -97.496 -35.901999999999994 -104.48599999999999 -17.056999999999995 -104.268 3.399000000000008 C -103.83 43.96800000000001 -75.111 77.59900000000002 -37.018 85.62800000000001 C -31.037 87.00500000000001 -24.715 87.66400000000002 -18.291 87.59700000000001 C -11.201 87.5 -4.367 86.559 2.168 84.833 C 18.744 68.631 38.973 37.086 0 0" transform="translate(40.91867889817985, 0.21818090851017757)" paint-order="stroke" style="stroke: none; stroke-width: 1; stroke-dasharray: none; stroke-linecap: butt; stroke-dashoffset: 0; stroke-linejoin: miter; stroke-miterlimit: 4; fill: rgb(245,137,60); fill-rule: nonzero; opacity: 1;"/>
</g>
		<g transform="matrix(0.5039133244651967 0 0 -0.5039133244651967 93.39894630770453 -26.677075905359033)">
<path stroke-linecap="round" d="M 0 0 C -0.404 -38.786 -26.775 -71.297 -62.447 -81.067 L -62.504000000000005 -81.073 C -83.32600000000001 -64.917 -103.156 -37.050999999999995 -65.893 -1.5929999999999893 C -26.916000000000004 35.494000000000014 -47.144999999999996 67.03800000000001 -63.721000000000004 83.24000000000001 C -26.723 73.756 0.426 39.917 0 0" transform="translate(43.39820691140485, -1.0835000000000008)" paint-order="stroke" style="stroke: none; stroke-width: 1; stroke-dasharray: none; stroke-linecap: butt; stroke-dashoffset: 0; stroke-linejoin: miter; stroke-miterlimit: 4; fill: rgb(249,165,56); fill-rule: nonzero; opacity: 1;"/>
</g>
		<g transform="matrix(0.5039133244651967 0 0 -0.5039133244651967 -17.205728810661583 3.742964737715255)">
<path stroke-linecap="round" d="M 0 0 C -18.367 2.821 -32.557 11.299 -43.179 20.87 C -43.786 21.444000000000003 -44.458 22.019000000000002 -45.063 22.591 C -48.487 47.903999999999996 -62.353 77.868 -100.959 102.554 C -151.27800000000002 134.743 -137.978 196.239 -128.40800000000002 224.571 C -73.37600000000002 224.111 -24.104000000000013 185.605 -12.104000000000013 129.487 C -6.056000000000013 101.18199999999999 -10.452000000000014 73.089 -22.812000000000012 49.26299999999999 C -19.609 32.004 -13.088 10.458 0 0" transform="translate(68.73536778433598, -112.2855)" paint-order="stroke" style="stroke: none; stroke-width: 1; stroke-dasharray: none; stroke-linecap: butt; stroke-dashoffset: 0; stroke-linejoin: miter; stroke-miterlimit: 4; fill: rgb(245,137,60); fill-rule: nonzero; opacity: 1;"/>
</g>
		<g transform="matrix(0.5039133244651967 0 0 -0.5039133244651967 -63.499254154476716 8.863647095456145)">
<path stroke-linecap="round" d="M 0 0 C -15.86 -16.007 -36.372 -27.693 -59.985 -32.737 C -71.291 -35.168 -82.40899999999999 -35.885000000000005 -93.378 -35.045 L -93.445 -35.071000000000005 C -145.64999999999998 -31.545000000000005 -191.31799999999998 6.086999999999996 -202.802 59.75599999999999 C -214.578 114.935 -186.48 169.451 -137.861 193.021 C -129.31 197.22899999999998 -120.083 200.458 -110.303 202.56699999999998 C -101.401 204.45999999999998 -92.475 205.35399999999998 -83.773 205.13699999999997 C -93.341 176.80499999999998 -106.643 115.31099999999998 -56.324 83.11899999999997 C -17.717 58.434 -3.852 28.469 -0.428 3.154 C -0.204 2.102 -0.139 1.079 0 0" transform="translate(102.73814116468913, -84.89351469413089)" paint-order="stroke" style="stroke: none; stroke-width: 1; stroke-dasharray: none; stroke-linecap: butt; stroke-dashoffset: 0; stroke-linejoin: miter; stroke-miterlimit: 4; fill: rgb(240,97,61); fill-rule: nonzero; opacity: 1;"/>
</g>
</g>
</g>
<g id="text-logo" transform="matrix(1.9211538461538462 0 0 1.9211538461538462 819.2443710127792 617.0322415261244)">
<g paint-order="stroke" style="">
		<g id="text-logo-path-0" transform="matrix(1 0 0 1 0 0)">
<path stroke-linecap="round" d="M 3.59 -33.05 L 3.59 0 L 18.13 0 C 27.67 0 34.66 -6.61 34.66 -16.53 C 34.66 -26.06 28.05 -33.05 18.13 -33.05 Z M 11.14 -7.08 L 11.14 -25.97 L 17.19 -25.97 C 22.66 -25.97 26.63 -22.24 26.63 -16.53 C 26.63 -11.05 22.9 -7.08 17.19 -7.08 Z M 47.64 -33.05 L 47.64 0 L 72.1 0 L 72.1 -7.08 L 55.19 -7.08 L 55.19 -12.98 L 68.79 -12.98 L 68.79 -19.59 L 55.19 -19.59 L 55.19 -25.97 L 72.1 -25.97 L 72.1 -33.05 Z M 86.4 -33.05 L 86.4 0 L 93.96 0 L 93.96 -17.38 L 101.8 0 L 110.01 0 L 117.85 -17.38 L 117.85 0 L 125.4 0 L 125.4 -33.05 L 117.38 -33.05 L 105.9 -8.4 L 94.43 -33.05 Z M 138.67 0 L 146.93 0 L 149.01 -4.86 L 164.92 -4.86 L 167 0 L 175.26 0 L 161.1 -33.05 L 152.84 -33.05 Z M 151.84 -11.47 L 156.99 -23.42 L 162.09 -11.47 Z M 216.39 -6.89 L 216.39 -18.41 L 199.67 -18.41 L 199.67 -12.75 L 208.83 -12.75 L 208.83 -9.68 C 206.61 -7.6 204.06 -6.7 201.14 -6.7 C 195.75 -6.7 191.79 -10.91 191.79 -16.48 C 191.79 -21.96 195.47 -26.35 201.14 -26.35 C 204.49 -26.35 207.56 -24.65 209.31 -22.05 L 215.96 -25.97 C 213.08 -30.78 207.89 -33.81 201.14 -33.81 C 191.17 -33.81 183.9 -26.91 183.9 -16.48 C 183.9 -6.52 190.75 0.76 201.14 0.76 C 207.61 0.76 213.08 -2.03 216.39 -6.89 Z M 245.43 0.76 C 255.39 0.76 262.66 -6.09 262.66 -16.48 C 262.66 -26.53 255.86 -33.81 245.43 -33.81 C 235.46 -33.81 228.19 -26.91 228.19 -16.48 C 228.19 -6.52 235.04 0.76 245.43 0.76 Z M 236.08 -16.48 C 236.08 -21.96 239.76 -26.35 245.43 -26.35 C 250.81 -26.35 254.77 -22.1 254.77 -16.48 C 254.77 -11.1 251.04 -6.7 245.43 -6.7 C 240.04 -6.7 236.08 -10.91 236.08 -16.48 Z M 306.71 -6.89 L 306.71 -18.41 L 290 -18.41 L 290 -12.75 L 299.16 -12.75 L 299.16 -9.68 C 296.94 -7.6 294.39 -6.7 291.46 -6.7 C 286.08 -6.7 282.11 -10.91 282.11 -16.48 C 282.11 -21.96 285.79 -26.35 291.46 -26.35 C 294.81 -26.35 297.88 -24.65 299.63 -22.05 L 306.29 -25.97 C 303.41 -30.78 298.21 -33.81 291.46 -33.81 C 281.5 -33.81 274.23 -26.91 274.23 -16.48 C 274.23 -6.52 281.07 0.76 291.46 0.76 C 297.93 0.76 303.41 -2.03 306.71 -6.89 Z" transform="translate(-155.15, 16.525000000000002)" paint-order="stroke" style="stroke: rgb(255,255,255); stroke-width: 0; stroke-dasharray: none; stroke-linecap: butt; stroke-dashoffset: 0; stroke-linejoin: miter; stroke-miterlimit: 4; fill: rgb(240,97,61); fill-rule: nonzero; opacity: 1;"/>
</g>
</g>
</g>
</svg>